<svg xmlns="http://www.w3.org/2000/svg" width="512" height="512" viewBox="0 0 512 512" role="img" aria-label="המעבדה">
  <defs>
    <radialGradient id="bg" cx="50%" cy="42%" r="75%">
      <stop offset="0%" stop-color="#1c1432"/>
      <stop offset="55%" stop-color="#15111e"/>
      <stop offset="100%" stop-color="#0d0915"/>
    </radialGradient>
    <linearGradient id="liquid" x1="0" y1="0" x2="0" y2="1">
      <stop offset="0%" stop-color="#3fd9c6"/>
      <stop offset="52%" stop-color="#6ba0ff"/>
      <stop offset="100%" stop-color="#c08bff"/>
    </linearGradient>
    <linearGradient id="glass" x1="0" y1="0" x2="1" y2="1">
      <stop offset="0%" stop-color="#ffffff" stop-opacity=".95"/>
      <stop offset="100%" stop-color="#dccfea" stop-opacity=".75"/>
    </linearGradient>
    <filter id="soft" x="-60%" y="-60%" width="220%" height="220%">
      <feGaussianBlur stdDeviation="34"/>
    </filter>
    <filter id="glow" x="-80%" y="-80%" width="260%" height="260%">
      <feGaussianBlur stdDeviation="22"/>
    </filter>
    <clipPath id="inner">
      <path d="M226,201 L286,201 L356,360 Q360,372 348,373 L164,373 Q152,372 156,360 Z"/>
    </clipPath>
  </defs>

  <!-- רקע -->
  <rect width="512" height="512" rx="0" fill="url(#bg)"/>
  <!-- זוהר אווירה -->
  <circle cx="430" cy="78" r="150" fill="#ffb454" opacity=".16" filter="url(#soft)"/>
  <circle cx="78" cy="70" r="135" fill="#c08bff" opacity=".15" filter="url(#soft)"/>
  <circle cx="256" cy="500" r="180" fill="#ff8aa8" opacity=".11" filter="url(#soft)"/>

  <!-- הילה מאחורי הבקבוק -->
  <ellipse cx="256" cy="320" rx="120" ry="120" fill="#6ba0ff" opacity=".22" filter="url(#glow)"/>

  <!-- נוזל -->
  <g clip-path="url(#inner)">
    <rect x="150" y="296" width="212" height="90" fill="url(#liquid)"/>
    <rect x="150" y="296" width="212" height="10" fill="#eafcff" opacity=".55"/>
    <!-- בועות בתוך הנוזל -->
    <circle cx="214" cy="344" r="9" fill="#ffffff" opacity=".30"/>
    <circle cx="290" cy="356" r="6" fill="#ffffff" opacity=".28"/>
    <circle cx="250" cy="332" r="5" fill="#ffffff" opacity=".34"/>
  </g>

  <!-- בועות עולות בצוואר -->
  <circle cx="252" cy="250" r="7" fill="#3fd9c6" opacity=".9"/>
  <circle cx="268" cy="214" r="5" fill="#ffb454" opacity=".92"/>
  <circle cx="246" cy="186" r="4" fill="#c08bff" opacity=".92"/>

  <!-- זכוכית הבקבוק -->
  <path d="M214,150 L298,150 L292,201 L364,366 Q372,384 352,385 L160,385 Q140,384 148,366 L220,201 Z"
        fill="none" stroke="url(#glass)" stroke-width="9" stroke-linejoin="round"/>
  <!-- שפת הצוואר -->
  <path d="M205,150 L307,150" fill="none" stroke="url(#glass)" stroke-width="11" stroke-linecap="round"/>
  <!-- נצנוץ על הזכוכית -->
  <path d="M236,214 L196,360" fill="none" stroke="#ffffff" stroke-width="5" stroke-linecap="round" opacity=".30"/>
</svg>
